<?xml version="1.0" standalone="no"?>
<!DOCTYPE svg PUBLIC "-//W3C//DTD SVG 20010904//EN"
 "http://www.w3.org/TR/2001/REC-SVG-20010904/DTD/svg10.dtd">
<svg version="1.0" xmlns="http://www.w3.org/2000/svg"
 width="372.000000pt" height="372.000000pt" viewBox="0 0 372.000000 372.000000"
 preserveAspectRatio="xMidYMid meet">
<metadata>
Created by potrace 1.16, written by Peter Selinger 2001-2019
</metadata>
<g transform="translate(0.000000,372.000000) scale(0.100000,-0.100000)"
fill="#000000" stroke="none">
<path d="M1465 3576 c-101 -25 -190 -84 -250 -166 -29 -40 -43 -50 -65 -50
-16 0 -55 -10 -86 -21 -79 -30 -145 -96 -174 -175 l-22 -62 -61 -13 c-103 -21
-212 -83 -292 -163 -123 -124 -182 -276 -172 -442 3 -50 13 -119 22 -152 l17
-61 -39 -48 c-50 -59 -98 -154 -118 -230 -17 -66 -19 -186 -5 -264 12 -65 76
-202 116 -250 57 -66 55 -62 39 -110 -59 -167 -31 -371 72 -527 76 -114 231
-216 366 -242 59 -11 67 -15 67 -35 0 -37 58 -141 95 -169 44 -34 76 -46 150
-56 49 -8 63 -14 80 -37 51 -71 102 -115 173 -151 71 -34 82 -37 166 -37 79 0
99 4 146 27 31 15 74 43 95 61 l40 34 39 -33 c101 -88 241 -116 359 -74 93 34
166 89 212 161 20 31 30 37 74 43 67 9 128 31 167 61 34 26 94 134 94 169 0
18 9 23 62 33 81 16 209 80 275 138 62 55 137 165 164 240 43 124 46 247 8
378 l-20 68 41 46 c82 94 139 247 139 378 1 134 -41 255 -127 366 l-50 66 21
59 c30 85 29 264 -1 351 -70 200 -233 351 -429 397 -77 18 -80 19 -88 59 -24
107 -114 185 -244 209 -53 10 -64 16 -81 43 -29 48 -111 120 -166 148 -136 69
-294 50 -401 -47 -22 -20 -45 -36 -50 -36 -5 0 -22 13 -37 29 -36 38 -119 78
-185 91 -64 12 -72 12 -136 -4z m183 -150 c41 -21 94 -78 89 -96 -3 -8 -8 -23
-12 -32 -5 -13 0 -19 19 -24 30 -7 172 -2 181 7 3 4 0 18 -6 33 -11 24 -10 30
21 61 55 57 110 79 185 72 107 -8 186 -70 236 -184 l18 -43 76 0 c43 0 90 -6
110 -14 44 -19 75 -77 76 -148 2 -88 3 -88 69 -88 168 0 299 -71 390 -212 80
-123 93 -300 32 -444 l-29 -71 61 -60 c191 -187 191 -482 0 -670 l-63 -62 35
-85 c23 -56 37 -110 41 -154 14 -176 -91 -366 -248 -445 -54 -27 -182 -57
-244 -57 -28 0 -33 -4 -39 -31 -3 -17 -6 -49 -6 -71 0 -55 -32 -112 -72 -129
-19 -8 -66 -14 -110 -14 l-76 1 -26 -53 c-76 -155 -221 -217 -353 -149 -59 29
-97 72 -89 98 20 64 29 58 -88 58 -66 0 -106 -4 -106 -10 0 -6 7 -21 16 -35
15 -23 14 -25 -23 -62 -134 -134 -325 -89 -422 98 l-28 54 -69 -3 c-56 -2 -77
1 -114 20 -56 28 -71 59 -79 157 l-6 76 -50 1 c-176 3 -299 68 -389 204 -97
146 -109 301 -35 461 l32 70 -64 62 c-75 73 -112 138 -135 233 -36 154 15 324
130 432 30 29 57 56 60 61 3 5 -9 40 -26 77 -28 59 -33 82 -36 166 -7 166 47
289 170 388 73 59 154 90 257 99 94 8 101 13 101 86 0 62 25 113 69 142 28 19
47 23 113 23 75 0 79 1 88 25 5 14 25 50 44 80 74 114 214 158 324 101z"/>
<path d="M1050 2900 l0 -50 60 0 60 0 2 -176 3 -176 75 -1 75 -1 5 175 5 174
63 3 63 3 -3 47 -3 47 -202 3 -203 2 0 -50z"/>
<path d="M1485 2778 c-8 -206 -5 -283 13 -282 6 1 41 2 77 3 l65 1 0 225 0
225 -74 0 -74 0 -7 -172z"/>
<path d="M1708 2813 c-3 -76 -5 -176 -4 -223 l1 -85 125 -3 c145 -4 215 8 253
44 50 46 62 81 62 179 0 108 -23 158 -89 196 -37 22 -55 24 -192 27 l-151 4
-5 -139z m225 36 c14 -6 30 -22 36 -36 13 -28 15 -172 3 -191 -5 -7 -32 -15
-60 -18 l-52 -5 0 130 0 131 25 0 c13 0 35 -5 48 -11z"/>
<path d="M2160 2946 c0 -12 112 -423 119 -436 4 -8 16 -14 25 -14 9 1 56 2
106 3 l89 1 12 43 c6 23 33 124 59 225 l48 182 -82 0 -83 0 -28 -142 c-15 -79
-30 -150 -33 -158 -4 -8 -20 55 -37 140 l-31 155 -82 3 c-45 2 -82 1 -82 -2z"/>
<path d="M2701 2923 c-36 -7 -51 -27 -51 -69 0 -47 28 -74 73 -68 17 2 37 10
45 18 19 19 22 82 5 104 -9 10 -12 11 -7 2 6 -11 2 -10 -13 3 -11 9 -21 16
-24 16 -2 -1 -15 -4 -28 -6z"/>
<path d="M1639 2356 c-5 -6 -9 -190 -9 -463 l0 -453 -284 0 c-250 0 -285 -2
-290 -16 -3 -9 -6 -48 -6 -89 0 -64 -2 -73 -20 -78 -18 -5 -20 -14 -20 -101 0
-113 -5 -109 130 -104 l85 3 0 100 c0 95 -1 100 -22 103 -24 3 -35 22 -24 40
5 8 90 12 286 14 l280 3 3 463 c2 359 5 462 15 463 6 1 178 2 380 3 l368 1 6
-23 c6 -26 -3 -38 -32 -44 -18 -3 -20 -11 -20 -103 l0 -100 104 -3 c77 -2 107
1 113 10 10 16 10 169 0 184 -4 7 -16 13 -27 15 -18 4 -21 14 -25 89 l-5 85
-488 5 c-302 3 -492 1 -498 -4z"/>
<path d="M907 2263 c-4 -3 -7 -50 -7 -104 0 -113 -4 -109 105 -109 90 0 105 5
105 36 l0 24 130 0 130 0 0 -179 c0 -179 0 -180 -22 -183 -22 -3 -23 -8 -26
-97 -2 -69 1 -97 10 -103 23 -14 174 -10 187 6 8 9 11 46 9 103 -3 83 -4 88
-25 91 l-23 3 0 227 c0 125 -4 233 -9 240 -6 11 -45 13 -181 11 -167 -3 -174
-2 -183 17 -8 19 -18 21 -101 23 -51 1 -95 -2 -99 -6z"/>
<path d="M1849 2179 c-6 -3 -8 -50 -7 -105 3 -94 4 -99 26 -102 21 -3 22 -7
22 -102 0 -68 4 -101 13 -107 6 -4 77 -8 157 -8 l145 0 0 -195 c0 -194 0 -195
-23 -205 -29 -13 -34 -32 -30 -125 l3 -75 42 -7 c23 -4 71 -4 105 0 l63 7 3
97 c3 94 2 97 -20 100 l-23 3 -5 265 -5 265 -152 3 -153 3 0 38 c0 30 4 40 20
44 18 5 20 14 20 100 0 66 -4 98 -12 104 -15 9 -175 11 -189 2z"/>
<path d="M2534 1657 c-2 -7 -4 -54 -2 -102 3 -86 4 -89 28 -95 l25 -6 0 -194
0 -195 -232 -3 c-269 -3 -241 12 -245 -132 -3 -81 -4 -84 -28 -90 -24 -6 -25
-10 -28 -85 -5 -130 -9 -125 108 -125 117 0 113 -5 108 125 -3 79 -3 80 -30
83 -26 3 -28 6 -28 52 l0 50 243 2 242 3 3 254 c2 240 3 254 23 270 18 14 20
26 17 106 l-3 90 -98 3 c-75 2 -99 0 -103 -11z"/>
<path d="M1873 1653 c-39 -5 -48 -35 -38 -133 6 -61 9 -69 31 -74 l24 -6 0
-150 0 -150 -207 -2 -208 -3 -3 -92 c-3 -91 -3 -93 -27 -93 -19 0 -25 -6 -26
-22 -2 -50 0 -190 3 -193 3 -3 192 -8 216 -6 9 1 12 29 12 106 l0 106 -30 6
c-28 5 -30 9 -30 49 l0 44 208 2 207 3 3 194 c2 179 4 196 22 213 17 16 20 32
20 96 0 42 -4 82 -8 89 -8 13 -118 24 -169 16z"/>
</g>
</svg>
