<svg xmlns="http://www.w3.org/2000/svg" width="296.874" height="287.216" viewBox="0 0 296.874 287.216"><g fill="none" stroke-linecap="round"><path stroke="#043b0c" d="M48.66 50.23q0 0 0 0m0 0q0 0 0 0m-22.18 37.7C40.7 67.47 58.51 48.95 73.72 33.59M26.48 87.93c11.96-13.64 22.97-25.76 47.24-54.34m-53.66 73.93c17.9-23.69 37.88-44.27 68.88-79.25m-68.88 79.25c20.17-21.69 38.07-45.26 68.88-79.25m-77.28 101.1c29.15-31.76 54.92-62.85 91.85-105.66M11.66 129.37c26.5-31.66 52.55-61.7 91.85-105.66M12.45 140.66c34.17-38.4 68.03-77.07 105.63-121.51M12.45 140.66C53.3 93.98 94.52 47.7 118.08 19.15M12.58 152.7C61.69 97.45 106.36 45.47 132.64 14.59M12.58 152.7c27.93-36.06 58.37-69.81 120.06-138.11M13.37 163.98c44.03-50.74 84.52-98.82 129.9-149.43M13.37 163.98c26.65-32.65 54.95-64.7 129.9-149.43M14.82 174.51c35.61-42.15 73.35-83.28 138.43-159.24M14.82 174.51c47.72-54.99 96.89-110.02 138.43-159.24M18.23 182.78c43.26-50.49 86.63-100.93 145.65-167.54M18.23 182.78c54-60.31 107.27-122.62 145.65-167.54M21.64 191.05C74.8 133.64 122.6 74.09 175.82 13.69M21.64 191.05c42.82-47.66 82.84-94.92 154.18-177.36M25.06 199.32c36.69-40.23 72.28-85.9 158.76-182.64M25.06 199.32c45.6-53.85 91.5-105.27 158.76-182.64M29.13 206.83c50.04-56.95 96.31-111.34 162.7-187.17M29.13 206.83C81.47 147.47 133.6 87.54 191.83 19.66M32.54 215.1c38.36-41.97 76.17-87.4 167.3-192.45M32.54 215.1c47.41-54.88 93.23-107.25 167.3-192.45M37.92 221.1C97.83 154.25 153.01 89.89 207.84 25.63M37.92 221.1c47.47-54.52 94.8-109.6 169.92-195.47M43.3 227.1c35.77-41.35 71.18-81.05 172.55-198.49M43.3 227.1c43.35-50.91 88.38-103.71 172.55-198.49M48.69 233.11c45.74-51.61 87.87-102.94 173.85-200m-173.85 200c59.73-67.2 119.21-137.64 173.85-200m-168.47 206C119.43 163.08 186 88.94 229.24 37.6M54.07 239.11c39.75-45.79 79.14-92.72 175.17-201.51M58.79 245.87c59.01-65.49 116.09-133.9 176.48-203.02M58.79 245.87c64.85-74.69 130.47-151.26 176.48-203.02M64.83 251.12c66-77.7 131.41-153.75 177.14-203.78M64.83 251.12c70-80.85 141.27-161.27 177.14-203.78M72.18 254.85c49.45-56.5 97.61-112.3 175.82-202.26M72.18 254.85c46.31-54.36 90.87-105.7 175.82-202.26m-168.47 206c53.92-64.87 109.94-129.88 175.17-201.5M79.53 258.59c43.05-46.31 84.74-94.54 175.17-201.5m-168.48 206c50.7-59.11 101.29-121.43 173.2-199.25M86.22 263.09C146.68 197.44 204.65 130 259.42 63.84M93.57 266.83c63.49-69.26 125.2-140.26 169.92-195.47M93.57 266.83c43.42-50.72 86.87-101.63 169.92-195.47M101.58 269.81c38.66-44.79 74.24-86.25 165.98-190.94M101.58 269.81c66.52-76.25 132.73-152.72 165.98-190.94M110.24 272.04C163.5 209.9 218.93 148.5 272.29 85.63M110.24 272.04c36.34-40.1 71.16-80.8 162.05-186.41M119.56 273.52c54.17-61.08 109.36-125.79 156.14-179.63M119.56 273.52c39.85-46.92 79.27-93.54 156.14-179.63M128.22 275.75c45.05-51.28 92.96-106.01 150.24-172.83M128.22 275.75c45.25-52.57 90.07-106 150.24-172.83m-140.92 174.3c33.15-40.85 67.17-79.43 143.02-164.53M137.54 277.22c56.84-63.78 113.53-128.99 143.02-164.53M146.2 279.45c30.17-31.75 54.93-63.16 137.12-157.73M146.2 279.45c51.86-60.49 103.47-119.11 137.12-157.73M158.14 277.91c36.08-41.27 73.59-85.28 127.28-146.42M158.14 277.91c39.32-45.45 80.6-91.81 127.28-146.42M170.09 276.36c27.05-28.99 49.56-60.28 119.4-137.36m-119.4 137.36c34.83-41.53 71.49-82.56 119.4-137.36M182.03 274.82c37.19-45.03 77.98-89.08 106.28-122.27M182.03 274.82c41.48-47.6 82.83-95.84 106.28-122.27m-95 121.48c37.26-43.4 73.5-82.4 93.82-107.92m-93.82 107.92c21.89-25.27 42.58-48.81 93.82-107.92m-74.66 98.07c12.8-17.39 28.64-34.9 72.17-83.02m-72.17 83.02c14.9-16.86 29.97-33.8 72.17-83.02"/><path stroke="#2273b4" stroke-width="2" d="M175.28 13.39c14.18.82 28.71 8.08 41.8 15.13 13.09 7.04 26.95 16.35 36.74 27.15 9.78 10.8 16.51 24.27 21.96 37.64 5.46 13.37 9.71 28.23 10.75 42.59s-.36 29.67-4.51 43.55-11.88 27.78-20.38 39.73c-8.51 11.94-18.81 23.18-30.67 31.94s-25.99 16.24-40.48 20.63c-14.49 4.38-31.24 6.33-46.45 5.68-15.2-.66-30.76-4.55-44.8-9.61-14.03-5.06-27.87-11.59-39.42-20.77s-22.01-21.95-29.86-34.32c-7.85-12.36-14-25.84-17.22-39.87-3.22-14.04-4.02-29.96-2.11-44.36 1.9-14.39 7.17-28.92 13.54-42 6.36-13.07 14.35-26.26 24.65-36.46C59.13 39.83 72.43 31.6 86 25.27c13.56-6.33 28.3-11.37 44.21-13.21 15.91-1.83 41.65 1.27 51.27 2.2 9.62.94 6.86 1.32 6.44 3.42m-82.06-2.27c13.12-6.34 31.12-6.18 45.89-5.82 14.76.36 28.87 3.06 42.71 7.98 13.84 4.93 28.33 12.65 40.31 21.59 11.99 8.94 23.39 19.88 31.59 32.06 8.19 12.19 14.42 26.56 17.59 41.06 3.17 14.49 3.18 31.12 1.45 45.9-1.74 14.77-5.79 29.7-11.86 42.75-6.08 13.05-14.24 25.11-24.59 35.55s-23.93 20.43-37.5 27.09-29.11 10.88-43.92 12.86c-14.82 1.99-30.21 1.83-44.95-.97s-30.35-8.4-43.48-15.84-25.42-18.03-35.29-28.8c-9.87-10.78-18.5-22.55-23.94-35.85-5.45-13.29-7.85-29.24-8.74-43.91-.88-14.68-.34-30.31 3.43-44.13 3.78-13.81 10.68-26.9 19.22-38.74 8.54-11.83 20-23.66 32.05-32.26 12.04-8.6 33.54-16.67 40.23-19.34 6.7-2.67-.89 1.2-.07 3.29"/></g><g stroke-linecap="round"><path fill="#c0998b" d="M148.377 64.53c6.02-.48 15.81 1.49 20.81 5.02 4.99 3.53 8.18 10.23 9.16 16.16.97 5.94-.25 13.97-3.3 19.46-3.06 5.48-9.49 11.2-15.04 13.44s-12.28 1.84-18.25-.01c-5.98-1.85-14.14-6.12-17.6-11.09s-4.37-12.71-3.18-18.74c1.2-6.03 4.08-13.27 10.36-17.43 6.28-4.17 21.45-7.2 27.33-7.56 5.88-.35 8.21 4.86 7.96 5.42m-28.08-2.89c5.19-2.36 13.36-3.45 19.66-1.58s14.87 7.65 18.13 12.78c3.26 5.12 2.75 11.79 1.43 17.96-1.32 6.16-4.86 14.94-9.35 19.05s-11.64 5.8-17.6 5.6-13.26-3.21-18.14-6.78-9.9-8.77-11.14-14.65c-1.23-5.87.75-15.24 3.75-20.59 3.01-5.35 11.94-9.56 14.31-11.53 2.36-1.97-.12-.72-.13-.29"/><path fill="none" stroke="#a2715c" stroke-width="2" d="M147.267 63.65c5.92-1.07 12.93.72 18.14 4.23 5.2 3.51 11.28 10.86 13.09 16.85s.3 13.67-2.23 19.09-7.54 10.9-12.94 13.42c-5.41 2.52-13.5 3.08-19.49 1.69s-12.73-5.36-16.45-10.04-6.13-12.07-5.87-18.05c.26-5.99 2.24-13.21 7.44-17.85 5.2-4.63 19.18-8.6 23.77-9.97 4.59-1.38 3.96 1.17 3.76 1.75m-1.96-2.04c6.09.6 14.18 5.74 18.17 10.46 3.99 4.71 5.45 12.08 5.77 17.86.32 5.77-.22 12.07-3.85 16.78-3.63 4.72-11.72 10.15-17.95 11.52-6.22 1.36-13.81-.36-19.4-3.32-5.58-2.97-11.48-9.23-14.09-14.46-2.61-5.22-3.21-11.34-1.57-16.89 1.64-5.56 6.25-13.07 11.39-16.45 5.14-3.39 16.07-3 19.46-3.87s.72-1.48.89-1.35"/></g><g stroke-linecap="round"><path fill="#154162" d="M159.417 121.75c5.12 2.4 11.93 9.49 15.21 17.02 3.28 7.54 5.07 18.96 4.46 28.2s-4.3 20.2-8.11 27.23-9.37 12.64-14.75 14.95c-5.39 2.31-12.35 2.13-17.57-1.08-5.22-3.2-10.8-10.3-13.73-18.13-2.94-7.84-4.31-19.78-3.87-28.89.43-9.11 3.03-18.74 6.5-25.78 3.48-7.03 8.69-14.21 14.36-16.41s16.24 2.59 19.66 3.2 1.09-.19.84.45m-2.48-.59c5.08 3.2 11.93 11.86 14.75 19.82s2.82 18.82 2.17 27.94c-.66 9.12-2.78 19.89-6.12 26.79-3.34 6.91-8.48 12.99-13.94 14.64s-13.48-.99-18.85-4.74-10.59-10.2-13.34-17.74c-2.76-7.53-3.53-18.53-3.18-27.48.35-8.96 1.83-19.43 5.27-26.23s9.83-12.43 15.36-14.58c5.53-2.14 14.46 1.22 17.83 1.7 3.37.47 2.48.34 2.41 1.16"/><path fill="none" stroke="#56a2e8" stroke-width="2" d="M151.387 118.03c5.35-.15 11.53 4.78 15.88 10.71s8.83 16.25 10.23 24.87c1.39 8.61.2 18.5-1.88 26.81-2.07 8.31-5.97 18.02-10.58 23.03-4.61 5-11.38 7.44-17.08 6.99-5.69-.44-12.62-3.81-17.07-9.66-4.46-5.84-8.18-16.61-9.67-25.4-1.48-8.79-1.28-18.92.77-27.35 2.06-8.42 6.06-18.48 11.57-23.22 5.51-4.75 17.12-4.84 21.49-5.23 4.36-.39 4.77 2.23 4.71 2.87m-20.05-2.66c5.07-3.32 13.52-1.81 18.79.83 5.26 2.65 9.25 8.17 12.81 15.04s7.97 17.15 8.54 26.19c.56 9.04-1.61 20.55-5.16 28.06-3.55 7.52-10.5 14-16.12 17.04-5.63 3.03-12.59 3.67-17.64 1.19-5.05-2.47-9.14-8.96-12.66-16.05s-7.87-17.83-8.47-26.49c-.61-8.66 1.76-17.95 4.82-25.46 3.05-7.51 11.2-16.7 13.5-19.59 2.31-2.89 0 1.45.32 2.25"/></g><path fill="none" stroke="#56a2e8" stroke-linecap="round" stroke-width="2" d="M63.524 97.49c-6.6 6.21-34.54 31.98-41.47 38.6m40.39-36.28c-6.59 6.35-34.09 31.9-40.92 37.83m47.686 39.084c-7.93-6.55-40.14-32.98-48.31-39.22m50.3 37.95c-7.91-6.36-42.17-30.42-50.77-36.75"/><path fill="#1e1900" d="m118.847 66.41 1.53-1.59q1.54-1.59 2.35-4.18.83-2.59 3.99-5.13 3.16-2.53 6.2-.52t5.61 2.92q2.57.92.26.94t1-.86q3.3-.87 5.12-2.16 1.82-1.28 4.09-2.41 2.27-1.12 6.34-.59 4.06.52 6.47 2.15 2.42 1.62 4.99 1.68 2.58.06 5.49 2.42 2.91 2.37 4.31 4.9 1.41 2.54 2.3 4.92.88 2.37-1.46 3.04t-4.61.67-4.91-3.02q-2.63-3.02-4.71-4.33-2.07-1.31-6.48-2.77-4.41-1.47-6.66-1.61-2.25-.15-4.68-.15l-4.71.02q-2.28.01-4.24.86t-2.25 3.06q-.28 2.2-1.26 5-.97 2.78-3.11 3.88t-3.66 2.61q-1.52 1.5-3.52 2.77-1.99 1.27-4.1 1.93-2.1.65-.44.22 1.67-.44.91.08t-1.63.85q-.86.32-1.78.43-.91.1-1.83-.01-.91-.12-1.77-.45t-1.62-.86-1.37-1.22-1.03-1.51-.64-1.72-.21-1.82q0-.92.23-1.82.22-.89.66-1.71.43-.81 1.04-1.49.62-.69 2.38-2.23 1.75-1.54 3.8-3.15 2.04-1.62 4.51-2.47t5.7-2.17q3.24-1.32 5.42-1.37t4.72-.06q2.54 0 4.79-.02 2.26-.01 5.58-.71t5.81-.78q2.48-.09 5.08.25 2.6.33 5.26 1.49 2.66 1.15 3.23 1.37.56.22 1.25.83.69.6 1.21 1.35.53.75.86 1.6t.45 1.76.02 1.82q-.11.91-.43 1.77-.31.86-.83 1.61-.51.75-1.19 1.37-.69.61-1.49 1.04-.81.43-1.7.66t-1.8.23q-.92.01-1.81-.2-.89-.22-1.7-.63-.82-.42-2.45-3.8-1.64-3.38-3.88-5.8-2.24-2.41-4.37-3.17-2.13-.77-5.14-.02t-5.39.79q-2.37.04-4.55.55-2.17.52-3.61 1.8-1.44 1.27-2.51 1.77t-2.24.63q-1.17.14-2.31-.11-1.15-.25-2.16-.85t-1.78-1.5q-.77-.89-1.21-1.99-.44-1.09-.51-2.26-.07-1.18.24-2.32.31-1.13.97-2.11t1.59-1.7q.94-.71 2.05-1.09 1.12-.38 2.28-.39 1.18-.01 2.3.37 1.12.37 2.06 1.08t1.6 1.68q.67.97.99 2.1.32 1.14.26 2.31-.06 1.18-.49 2.28-.43 1.09-1.19 1.99t-1.76 1.52q-1.01.61-2.16.87-1.15.25-2.32.13-1.16-.12-2.23-.61-1.08-.49-1.93-1.3-.86-.8-1.42-1.84t-.75-2.2q-.2-1.16-.01-2.33.19-1.16.73-2.2.55-1.05 1.4-1.86l.85-.81 1.66-.88q1.65-.87 5.66-2.72 4.02-1.85 7.07-2.16 3.05-.32 5.73-.76 2.67-.45 5.91-.68 3.25-.22 6.18.47 2.94.69 5.95 3.07t4.69 4.14q1.68 1.75 3.39 4.02 1.71 2.26 2.76 5.23t-.59.32-.95-2.04q.69.6 1.21 1.35.53.75.86 1.6t.45 1.76.02 1.82q-.11.91-.43 1.77-.31.86-.83 1.61-.51.75-1.19 1.37-.68.61-1.49 1.04t-1.7.66q-.88.23-1.8.23-.92.01-1.81-.2-.89-.22-1.7-.63-.82-.42-1.64-.8-.82-.37-2.98-.71-2.17-.34-5.91.81-3.75 1.16-6.08 1.15-2.34-.01-4.75-.01-2.4 0-4.88.52-2.47.51-5.71 2.08-3.23 1.57-4.84 2.99-1.62 1.42-2.38 1.94t-1.62.85q-.87.32-1.79.43-.91.1-1.83-.01-.91-.12-1.77-.45t-1.62-.86-1.37-1.22q-.6-.69-1.03-1.51-.42-.82-.64-1.72t-.21-1.82q0-.92.23-1.82.22-.89.65-1.7.44-.82 1.05-1.5.62-.68 3.34-1.79 2.72-1.1 4.45-2.5 1.74-1.4 3.47-2.83 1.74-1.43.36.38-1.38 1.82-.58-.2t2.57-4.96q1.79-2.95.62-.84-1.16 2.11-.75-.29.43-2.39 3.15-5.13t5.17-4.04q2.45-1.29 6.17-1.63 3.73-.34 6.24-.33 2.52 0 4.66.04 2.14.03 4.35.18t5.4 1.27q3.19 1.13 5.27 1.84 2.09.72 4.58 1.85 2.5 1.12 5.1 2.88t4.99 4.61q2.39 2.84 4.83 5.93 2.45 3.08 3.15 5.15.7 2.05.68 4.43-.01 2.38-2.41 5.76-2.39 3.38-6.49 3.64-4.1.25-6.63-1.78-2.53-2.04-3.56-3.9-1.04-1.86-1.93-4.3-.88-2.44-2.75-3.89-1.86-1.46.7-.98 2.56.47-1.23.5-3.79.02-5.18-2.42t-2.93-.49q-1.55 1.95-4.01 3.12-2.47 1.16-6.14 1.21-3.68.06-7.37-2-3.68-2.07-6.09-2.97-2.41-.89-3.97-3.19-1.57-2.31 1.02-.95 2.6 1.36 4.83.37t1.02 1.55q-1.22 2.55-2.49 4.88-1.27 2.32-2.95 3.95-1.69 1.63-2.18 2-.48.38-1.04.63-.55.25-1.16.36-.6.11-1.2.08-.61-.04-1.2-.22-.58-.18-1.1-.5-.53-.32-.96-.75t-.75-.96q-.32-.52-.5-1.11-.18-.58-.22-1.19-.03-.6.08-1.2.11-.61.36-1.16.25-.56.63-1.04z"/><path fill="none" stroke="#56a2e8" stroke-linecap="round" stroke-width="2" d="M234.127 95.612c7.75 6.43 40 32.5 47.83 38.84m-49.37-36.61c7.5 6.7 40.63 32.08 48.54 38.22m-54.402 39.17c9.37-6.49 46.58-33.13 55.8-39.79m-57.14 38.81c9.78-6.28 49.71-31.27 59.53-37.61m-79.05 29.722c3.88-10.4 18.84-50.91 22.62-61.13m-20.57 59.95c3.82-10.79 16.42-51.12 19.75-61.45"/><g stroke-linecap="round"><path fill="#202325" d="M100.837 141.2c24.93-1.27 51.72-2.71 95.2 0 11.52 1.26 21.56 7.53 20.8 20.8 1.47 12.79-2.37 19.55 0 41.6-.58 13.05-4.36 20.29-20.8 20.8-19.83-.01-49.18-1.04-95.2 0-14.18 1.36-23.76-4.95-20.8-20.8 3.56-16.44-.04-31.9 0-41.6.2-14.82 6.88-24.32 20.8-20.8"/><path fill="none" stroke="#6e757c" stroke-width="2" d="M100.837 141.2c29.36.15 60.84 2.06 95.2 0m-95.2 0c30.95-1.47 63.84-1.4 95.2 0m0 0c15.3 1.94 19.59 5.07 20.8 20.8m-20.8-20.8c14.6-1.66 21.53 8.48 20.8 20.8m0 0c-.26 16.33-1.29 31.55 0 41.6m0-41.6c-.31 11.44-.57 23.42 0 41.6m0 0c-1.18 12.56-8.36 21.27-20.8 20.8m20.8-20.8c-1 14.94-7.57 21.16-20.8 20.8m0 0c-20.25.52-44.46 1-95.2 0m95.2 0c-23.71.17-46.96-.62-95.2 0m0 0c-15.11 1.91-22.08-7.37-20.8-20.8m20.8 20.8c-13.22-1.48-20.52-4.69-20.8-20.8m0 0c-.42-16.26 1.88-27.5 0-41.6m0 41.6c-.65-13.89-.98-28.55 0-41.6m0 0c1.54-15.69 5.03-21.03 20.8-20.8m-20.8 20.8c-.45-12.95 5.59-22.58 20.8-20.8"/></g><path fill="#1e1900" d="m163.33 56.643.88 1.15q.88 1.15 3.66 2.89 2.78 1.76 4.8 2.87 2.01 1.11 2.85 1.06.83-.06 1.42.34.58.39 1.06.91.48.53.81 1.15.34.63.52 1.31.18.69.19 1.4t-.16 1.4q-.16.69-.48 1.32t-.78 1.16q-.47.54-1.04.95-.58.41-1.24.67t-1.36.35q-.71.1-1.41.02-.71-.08-1.37-.32-.67-.24-2.17-2.14-1.51-1.9-2.9-1.87-1.38.03-2.05-.32t-1.23-.85q-.57-.5-1-1.12t-.69-1.33q-.27-.71-.36-1.46t0-1.5.36-1.45q.27-.71.7-1.33.42-.62.99-1.12t1.23-.85q.67-.34 1.41-.52.73-.18 1.49-.18.75 0 1.48.18.74.18.86.22.12.05.97.59.86.55 1.49 1.33.64.79.99 1.74t.38 1.97q.03 1.01-.26 1.98-.3.97-.89 1.79-.59.83-1.41 1.42t-1.79.89-1.98.28q-1.02-.03-1.97-.38-.95-.34-1.74-.98-.79-.63-1.34-1.49-.55-.85-.79-1.83-.25-.98-.17-2 .08-1.01.48-1.94t1.07-1.68q.68-.76 1.56-1.26.88-.49 1.88-.68.99-.2 2-.06 1 .13 1.91.57.91.45 1.63 1.17.72.71 1.17 1.62t.59 1.91q.14 1.01-.05 2-.19 1-.69 1.88t-1.25 1.56q-.76.68-1.69 1.08t-1.94.49q-1.01.08-1.87-.11-.86-.2-1.53-.55t-1.23-.85q-.57-.5-1-1.12t-.69-1.33q-.27-.71-.36-1.46t0-1.5q.09-.74.36-1.45t.7-1.33q.42-.62.99-1.12t1.23-.85q.67-.34 1.41-.52.73-.18 1.48-.18.76 0 1.49.18.74.18.12-.3-.61-.49 1.67.68t3.95 2.97q1.67 1.79 2.26 2.18.58.4 1.06.92.48.53.81 1.15.34.63.52 1.31.18.69.19 1.4.01.7-.16 1.39-.16.69-.48 1.33-.32.63-.78 1.16-.47.54-1.04.95-.58.41-1.24.67t-1.36.35q-.71.1-1.41.02t-1.37-.32-.71-.14q-.05.1-3.2-1.61-3.14-1.71-5.23-3.1-2.08-1.4-4.19-3.32-2.12-1.93-2.91-3.22-.79-1.28-1.08-1.84-.29-.57-.44-1.18-.15-.62-.15-1.24 0-.64.15-1.26.15-.61.45-1.17.3-.57.72-1.04t.94-.83q.53-.36 1.12-.59.59-.22 1.22-.3.63-.07 1.26.01.63.07 1.22.3t1.11.59q.53.36.95.84z"/><path fill="#22190d" d="m126.565 66.995 1.2-.4q1.18-.4 3.14-1.31 1.97-.91 4.14-1.57t4.33-.98q2.15-.33 4.73-.7 2.57-.38 4.59-1.16t4.33-1.17q2.3-.4 4.63-.48 2.33-.09 4.78.02 2.45.1 4.79.99 2.33.89 3.79 2.71t4 3.35q2.54 1.54 4.93 2.85 2.38 1.31.34.19-2.03-1.13-4.34-.13t-4.69.58-4.27-1.94q-1.9-1.51-4.15-1.92-2.24-.41-4.5-1.24-2.26-.82-4.64-1.69-2.37-.87-4.4-1.87-2.02-1-4.34-.91-2.31.08-.67-1.41 1.65-1.5 0 .39-1.64 1.9-3.77 2.82-2.12.92-2.75-3.72-.62-4.64 1.27-5.94 1.89-1.31 4.74-1.01 2.85.31 5.84 5.01 3 4.71 2.42 7.01-.57 2.29-2.62 3.76-2.04 1.47-4.54 2.43-2.5.97-3.4 1.2-.89.22-1.82.23-.92 0-1.82-.22t-1.72-.64q-.82-.43-1.52-1.04-.69-.61-1.22-1.37t-.86-1.62q-.34-.87-.45-1.79-.12-.91-.01-1.83t.44-1.79q.32-.87.84-1.63.53-.76 1.22-1.38t1.5-1.05q.82-.43 3.77.08 2.94.5 6.69-1.06t4.97-1.62 2.4.28q1.18.33 2.18 1.03 1.01.69 1.75 1.67.73.98 1.11 2.14.39 1.16.38 2.38-.01 1.23-.41 2.39-.4 1.15-1.14 2.12-.75.97-1.77 1.65t-2.2 1-2.4.25q-1.22-.08-2.35-.54-1.14-.46-2.07-1.26-.92-.8-1.55-1.85-.62-1.05-.88-2.25-.25-1.2-.11-2.41.14-1.22.66-2.32.52-1.11 1.37-1.99.85-.89 1.93-1.45 1.09-.57 2.3-.76t2.41.02q1.21.2 2.29.78 1.07.59 1.91 1.48.83.89 1.34 2.01.51 1.11.63 2.33t-.15 2.41-.91 2.24q-.63 1.04-1.57 1.83-.94.78-2.08 1.23l-1.14.44-5.07 1.01q-5.08 1.01-8.14.6-3.07-.4-.45-.18t1.73.45q-.9.22-1.83.23-.92 0-1.82-.22t-1.72-.64q-.82-.43-1.52-1.04-.69-.61-1.22-1.37t-.86-1.62q-.33-.87-.45-1.79-.12-.91-.01-1.83t.44-1.79q.32-.86.84-1.63.53-.76 1.22-1.38.69-.61 1.5-1.05.82-.43 2.22.84 1.39 1.27 1.07 5.22-.33 3.96-3.18 3.91-2.86-.06-5.58-1.77t-3.49-5.62q-.79-3.91 2.1-6.44 2.9-2.53 5.31-4.81 2.42-2.27 4.66-2.78 2.25-.51 4.5-.5 2.24 0 4.45.22 2.2.22 4.94 1.17t5.8 2.19q3.06 1.25 5.6 1.87 2.55.63 5.69 1.91 3.15 1.29 4.87 2.59t3.55 2.76q1.82 1.45 3.49 3.58 1.68 2.13 2.85 4.74 1.17 2.6 1.45 6.09t-.96 6.14q-1.23 2.65-3.9 3.97-2.66 1.31-5.01.87-2.36-.44-4.36-1.55-1.99-1.1-4.16-2.37-2.16-1.26-4.59-3.45-2.44-2.2-3.58-4.19-1.14-2-.48.07.67 2.05-1.62 1.87-2.29-.19-4.8.44-2.5.63-4.96 1.06-2.45.43-4.78-.1t-4.69-.06q-2.35.46-4.68 1.07-2.34.61-3.58.82t-1.84.28q-.59.07-1.17 0-.59-.07-1.15-.28-.56-.2-1.05-.54t-.89-.78q-.4-.45-.68-.98-.28-.52-.42-1.1-.15-.58-.15-1.18 0-.59.14-1.17t.42-1.1q.27-.53.67-.98.39-.45.88-.79t1.05-.55q.56-.22.55-.22"/></svg>