<?xml version="1.0" standalone="no"?>
<!DOCTYPE svg PUBLIC "-//W3C//DTD SVG 20010904//EN"
 "http://www.w3.org/TR/2001/REC-SVG-20010904/DTD/svg10.dtd">
<svg version="1.0" xmlns="http://www.w3.org/2000/svg"
 width="500.000000pt" height="500.000000pt" viewBox="0 0 500.000000 500.000000"
 preserveAspectRatio="xMidYMid meet">
<metadata>
Created by potrace 1.16, written by Peter Selinger 2001-2019
</metadata>
<g transform="translate(0.000000,500.000000) scale(0.100000,-0.100000)"
fill="#000000" stroke="none">
<path d="M3722 3193 c-46 -45 -52 -69 -24 -104 38 -45 122 -16 122 43 0 10
-11 30 -24 43 -14 13 -26 32 -28 42 -3 15 -11 10 -46 -24z"/>
<path d="M1933 2950 c-80 -19 -123 -75 -123 -161 0 -42 6 -65 23 -90 61 -90
206 -92 274 -3 23 31 28 47 28 94 0 63 -16 95 -67 133 -38 28 -89 38 -135 27z"/>
<path d="M563 2934 c-64 -28 -101 -106 -88 -185 21 -123 181 -170 274 -81 87
83 67 211 -41 268 -34 17 -103 17 -145 -2z"/>
<path d="M2519 2928 c-10 -7 -51 -103 -94 -213 -42 -110 -81 -211 -87 -225 -6
-14 -14 -34 -18 -45 -42 -107 -123 -315 -131 -333 -20 -50 -16 -52 95 -52 79
0 106 4 116 15 6 8 25 47 40 87 l29 73 162 0 162 0 27 -76 c15 -41 30 -81 34
-88 6 -9 98 -11 374 -9 356 3 369 4 425 26 168 68 247 198 247 407 0 223 -96
362 -289 421 -34 10 -108 14 -278 14 l-233 0 0 -422 c0 -233 -4 -418 -9 -413
-4 6 -36 82 -71 170 -35 88 -74 184 -86 213 -13 29 -24 55 -24 58 0 3 -21 58
-46 122 -25 65 -59 152 -76 195 -17 42 -31 77 -32 78 0 0 -50 2 -111 5 -83 4
-114 2 -126 -8z m1029 -191 c89 -41 127 -121 120 -254 -4 -97 -33 -162 -91
-204 -46 -34 -85 -45 -179 -55 l-68 -7 0 270 c0 148 3 273 7 276 13 13 168 -6
211 -26z m-868 -167 c23 -68 46 -132 51 -142 9 -16 3 -17 -88 -11 -54 3 -100
7 -101 9 -2 1 13 49 33 106 21 57 42 118 48 135 6 18 11 32 13 30 1 -1 21 -58
44 -127z"/>
<path d="M3975 2928 c-3 -7 -4 -204 -3 -438 l3 -425 105 0 105 0 -4 268 c-2
147 -1 267 2 267 4 0 20 -27 37 -59 16 -33 54 -99 83 -148 29 -48 73 -124 97
-168 24 -44 53 -98 66 -120 l22 -40 136 -3 136 -3 0 441 0 441 -107 -3 -108
-3 3 -250 c1 -137 5 -270 7 -295 l5 -45 -20 44 c-19 41 -54 104 -195 356 -34
61 -69 126 -78 146 -9 20 -24 40 -33 43 -8 3 -69 6 -135 6 -87 0 -121 -3 -124
-12z"/>
<path d="M218 2860 c-35 -27 -52 -72 -45 -123 10 -71 85 -112 161 -87 52 17
76 53 76 112 0 43 -4 54 -34 84 -30 30 -41 34 -84 34 -34 0 -57 -6 -74 -20z"/>
<path d="M1571 2802 c-63 -31 -86 -113 -49 -172 29 -45 114 -64 168 -37 57 28
75 133 32 180 -42 47 -95 57 -151 29z"/>
<path d="M930 2802 c-53 -16 -85 -102 -60 -166 14 -37 67 -66 119 -66 36 0 49
6 77 34 30 30 34 40 34 88 0 47 -4 58 -29 82 -31 30 -93 42 -141 28z"/>
<path d="M1264 2630 c-104 -24 -153 -135 -104 -234 54 -111 206 -118 284 -13
31 42 30 140 -2 185 -38 53 -111 78 -178 62z"/>
<path d="M1571 2372 c-19 -9 -43 -33 -53 -52 -51 -94 43 -204 146 -170 96 31
111 167 24 220 -40 24 -72 25 -117 2z"/>
<path d="M949 2373 c-15 -2 -39 -18 -55 -34 -25 -26 -29 -38 -29 -85 0 -50 3
-59 33 -85 64 -57 180 -30 201 48 27 96 -46 172 -150 156z"/>
<path d="M1908 2317 c-65 -25 -98 -77 -98 -158 0 -91 51 -147 143 -155 63 -6
107 14 150 68 25 31 30 46 30 90 0 59 -27 115 -69 143 -34 22 -111 28 -156 12z"/>
<path d="M554 2301 c-55 -34 -79 -78 -79 -146 0 -74 25 -113 88 -144 53 -26
90 -26 143 -2 98 45 128 154 66 249 -37 58 -156 81 -218 43z"/>
<path d="M232 2280 c-18 -11 -40 -36 -48 -55 -29 -71 -12 -125 51 -155 50 -24
54 -24 105 -4 98 39 94 178 -6 220 -45 19 -63 18 -102 -6z"/>
<path d="M3629 1869 c-16 -16 -34 -21 -87 -21 -72 0 -95 -13 -90 -50 3 -20 10
-23 56 -26 73 -4 90 -4 153 -2 30 2 65 0 76 -4 12 -4 24 -2 27 3 4 6 16 7 29
2 12 -5 33 -4 46 0 14 6 28 6 35 0 19 -15 64 -1 70 22 11 43 7 87 -9 87 -9 0
-18 -6 -21 -14 -8 -21 -124 -19 -141 2 -12 16 -14 16 -27 0 -16 -21 -42 -23
-49 -4 -9 23 -47 26 -68 5z"/>
<path d="M4685 1870 c-16 -18 -20 -19 -27 -5 -11 19 -34 20 -42 0 -4 -12 -33
-15 -158 -15 -84 0 -175 -1 -203 -1 -48 -1 -63 2 -114 22 -31 13 -39 4 -43
-51 l-3 -45 93 -2 c64 -1 92 2 92 10 0 8 3 9 8 1 14 -21 50 -22 71 -2 17 15
21 16 21 3 0 -22 26 -19 43 6 l15 21 7 -21 c5 -18 14 -21 58 -21 29 0 97 -1
151 -1 90 -2 100 0 107 17 7 17 8 17 8 2 1 -27 28 -21 35 7 9 36 -9 64 -39 62
-14 -1 -30 -9 -36 -17 -7 -11 -9 -8 -7 14 4 36 -13 43 -37 16z"/>
<path d="M2525 1872 c-3 -3 -5 -14 -5 -24 0 -13 7 -18 25 -18 20 0 25 -5 25
-23 0 -31 39 -52 77 -42 15 4 63 6 105 6 73 -2 77 -1 81 21 l4 23 2 -22 c0
-13 8 -23 16 -23 8 0 15 -7 15 -15 0 -8 9 -15 20 -15 11 0 20 7 20 15 0 11 11
15 40 15 35 0 40 3 41 23 0 14 2 17 6 7 10 -27 30 -35 76 -32 32 3 47 9 50 20
4 15 5 15 6 1 1 -22 42 -28 116 -19 33 4 68 3 78 -2 9 -5 22 -6 28 -3 5 4 17
1 25 -6 12 -10 17 -8 28 7 12 16 11 22 -11 51 -21 27 -32 33 -62 32 -51 -1
-74 4 -87 20 -13 16 -34 7 -34 -16 0 -11 -3 -13 -12 -5 -7 5 -26 8 -43 6 -45
-5 -228 -7 -305 -3 -19 1 -45 1 -57 0 -78 -3 -107 0 -123 14 -14 13 -134 18
-145 7z"/>
</g>
</svg>
